<?xml version="1.0" encoding="utf-8"?>
<svg version="1.1" xmlns:xlink="http://www.w3.org/1999/xlink" width="15px" height="17px" xmlns="http://www.w3.org/2000/svg">
  <g transform="matrix(1 0 0 1 -1134 -562 )">
    <path d="M 5.35866477272727 14.0670572916667  C 5.42258522727273 14.0006510416667  5.45454545454546 13.9157986111111  5.45454545454546 13.8125  L 5.45454545454546 6.02083333333333  C 5.45454545454546 5.91753472222222  5.42258522727273 5.83268229166667  5.35866477272727 5.76627604166667  C 5.29474431818182 5.69986979166667  5.21306818181818 5.66666666666667  5.11363636363636 5.66666666666667  L 4.43181818181818 5.66666666666667  C 4.33238636363636 5.66666666666667  4.25071022727273 5.69986979166667  4.18678977272727 5.76627604166667  C 4.12286931818182 5.83268229166667  4.09090909090909 5.91753472222222  4.09090909090909 6.02083333333333  L 4.09090909090909 13.8125  C 4.09090909090909 13.9157986111111  4.12286931818182 14.0006510416667  4.18678977272727 14.0670572916667  C 4.25071022727273 14.1334635416667  4.33238636363636 14.1666666666667  4.43181818181818 14.1666666666667  L 5.11363636363636 14.1666666666667  C 5.21306818181818 14.1666666666667  5.29474431818182 14.1334635416667  5.35866477272727 14.0670572916667  Z M 8.0859375 14.0670572916667  C 8.14985795454546 14.0006510416667  8.18181818181818 13.9157986111111  8.18181818181818 13.8125  L 8.18181818181818 6.02083333333333  C 8.18181818181818 5.91753472222222  8.14985795454546 5.83268229166667  8.0859375 5.76627604166667  C 8.02201704545455 5.69986979166667  7.94034090909091 5.66666666666667  7.84090909090909 5.66666666666667  L 7.15909090909091 5.66666666666667  C 7.05965909090909 5.66666666666667  6.97798295454546 5.69986979166667  6.9140625 5.76627604166667  C 6.85014204545455 5.83268229166667  6.81818181818182 5.91753472222222  6.81818181818182 6.02083333333333  L 6.81818181818182 13.8125  C 6.81818181818182 13.9157986111111  6.85014204545455 14.0006510416667  6.9140625 14.0670572916667  C 6.97798295454546 14.1334635416667  7.05965909090909 14.1666666666667  7.15909090909091 14.1666666666667  L 7.84090909090909 14.1666666666667  C 7.94034090909091 14.1666666666667  8.02201704545455 14.1334635416667  8.0859375 14.0670572916667  Z M 10.8132102272727 14.0670572916667  C 10.8771306818182 14.0006510416667  10.9090909090909 13.9157986111111  10.9090909090909 13.8125  L 10.9090909090909 6.02083333333333  C 10.9090909090909 5.91753472222222  10.8771306818182 5.83268229166667  10.8132102272727 5.76627604166667  C 10.7492897727273 5.69986979166667  10.6676136363636 5.66666666666667  10.5681818181818 5.66666666666667  L 9.88636363636364 5.66666666666667  C 9.78693181818182 5.66666666666667  9.70525568181818 5.69986979166667  9.64133522727273 5.76627604166667  C 9.57741477272727 5.83268229166667  9.54545454545455 5.91753472222222  9.54545454545455 6.02083333333333  L 9.54545454545455 13.8125  C 9.54545454545455 13.9157986111111  9.57741477272727 14.0006510416667  9.64133522727273 14.0670572916667  C 9.70525568181818 14.1334635416667  9.78693181818182 14.1666666666667  9.88636363636364 14.1666666666667  L 10.5681818181818 14.1666666666667  C 10.6676136363636 14.1666666666667  10.7492897727273 14.1334635416667  10.8132102272727 14.0670572916667  Z M 5.63565340909091 1.53841145833333  L 5.11363636363636 2.83333333333333  L 9.88636363636364 2.83333333333333  L 9.375 1.53841145833333  C 9.32528409090909 1.47200520833333  9.26491477272727 1.43142361111111  9.19389204545455 1.41666666666667  L 5.81676136363636 1.41666666666667  C 5.74573863636364 1.43142361111111  5.68536931818182 1.47200520833333  5.63565340909091 1.53841145833333  Z M 14.9041193181818 2.93294270833333  C 14.9680397727273 2.99934895833333  15 3.08420138888889  15 3.1875  L 15 3.89583333333333  C 15 3.99913194444444  14.9680397727273 4.083984375  14.9041193181818 4.150390625  C 14.8401988636364 4.216796875  14.7585227272727 4.25  14.6590909090909 4.25  L 13.6363636363636 4.25  L 13.6363636363636 14.7421875  C 13.6363636363636 15.3546006944444  13.4694602272727 15.8840060763889  13.1356534090909 16.3304036458333  C 12.8018465909091 16.7768012152778  12.4005681818182 17  11.9318181818182 17  L 3.06818181818182 17  C 2.59943181818182 17  2.19815340909091 16.7841796875  1.86434659090909 16.3525390625  C 1.53053977272727 15.9208984375  1.36363636363636 15.3988715277778  1.36363636363636 14.7864583333333  L 1.36363636363636 4.25  L 0.340909090909091 4.25  C 0.241477272727273 4.25  0.159801136363636 4.216796875  0.0958806818181818 4.150390625  C 0.0319602272727273 4.083984375  0 3.99913194444444  0 3.89583333333333  L 0 3.1875  C 0 3.08420138888889  0.0319602272727273 2.99934895833333  0.0958806818181818 2.93294270833333  C 0.159801136363636 2.86653645833333  0.241477272727273 2.83333333333333  0.340909090909091 2.83333333333333  L 3.6328125 2.83333333333333  L 4.37855113636364 0.985026041666667  C 4.48508522727273 0.712022569444443  4.67684659090909 0.479600694444443  4.95383522727273 0.287760416666667  C 5.23082386363636 0.0959201388888878  5.51136363636364 0  5.79545454545455 0  L 9.20454545454546 0  C 9.48863636363637 0  9.76917613636364 0.0959201388888878  10.0461647727273 0.287760416666667  C 10.3231534090909 0.479600694444443  10.5149147727273 0.712022569444443  10.6214488636364 0.985026041666667  L 11.3671875 2.83333333333333  L 14.6590909090909 2.83333333333333  C 14.7585227272727 2.83333333333333  14.8401988636364 2.86653645833333  14.9041193181818 2.93294270833333  Z " fill-rule="nonzero" fill="#C2EAFB" stroke="none" transform="matrix(1 0 0 1 1134 562 )" />
  </g>
</svg>