<?xml version="1.0" encoding="utf-8"?>
<svg version="1.1" xmlns:xlink="http://www.w3.org/1999/xlink" width="17px" height="17px" xmlns="http://www.w3.org/2000/svg">
  <g transform="matrix(1 0 0 1 -1084 -562 )">
    <path d="M 2.87260726072607 15.563696369637  L 4.07326732673267 15.563696369637  L 5.09438943894389 14.5425742574257  L 2.45742574257426 11.9056105610561  L 1.43630363036304 12.9267326732673  L 1.43630363036304 14.1273927392739  L 2.87260726072607 14.1273927392739  L 2.87260726072607 15.563696369637  Z M 9.86336633663366 5.34125412541254  C 9.91573157315732 5.28888888888889  9.94191419141914 5.22530253025302  9.94191419141914 5.15049504950495  C 9.94191419141914 4.98591859185919  9.85962596259626 4.9036303630363  9.69504950495049 4.9036303630363  C 9.62024202420242 4.9036303630363  9.55665566556656 4.92981298129813  9.50429042904291 4.98217821782178  L 3.42244224422442 11.0640264026403  C 3.37007700770077 11.1163916391639  3.34389438943894 11.1799779977998  3.34389438943894 11.2547854785479  C 3.34389438943894 11.4193619361936  3.42618261826183 11.5016501650165  3.59075907590759 11.5016501650165  C 3.66556655665567 11.5016501650165  3.72915291529153 11.4754675467547  3.78151815181518 11.423102310231  L 9.86336633663366 5.34125412541254  Z M 0 12.3320132013201  L 9.33597359735974 2.9960396039604  L 14.0039603960396 7.66402640264026  L 4.66798679867987 17  L 0 17  L 0 12.3320132013201  Z M 16.5848184818482 3.05214521452145  C 16.8616061606161 3.34389438943894  17 3.68426842684268  17 4.07326732673267  C 17 4.46974697469747  16.8616061606161 4.80638063806381  16.5848184818482 5.08316831683168  L 14.7221122112211 6.94587458745875  L 10.0541254125413 2.27788778877888  L 11.9168316831683 0.426402640264026  C 12.1861386138614 0.142134213421341  12.5227722772277 0  12.9267326732673 0  C 13.3232123212321 0  13.6635863586359 0.142134213421341  13.9478547854785 0.426402640264026  L 16.5848184818482 3.05214521452145  Z " fill-rule="nonzero" fill="#C2EAFB" stroke="none" transform="matrix(1 0 0 1 1084 562 )" />
  </g>
</svg>