<?xml version="1.0" encoding="utf-8"?>
<svg version="1.1" xmlns:xlink="http://www.w3.org/1999/xlink" width="22px" height="26px" xmlns="http://www.w3.org/2000/svg">
  <defs>
    <filter x="503px" y="6px" width="22px" height="26px" filterUnits="userSpaceOnUse" id="filter30">
      <feOffset dx="1" dy="1" in="SourceAlpha" result="shadowOffsetInner" />
      <feGaussianBlur stdDeviation="2.5" in="shadowOffsetInner" result="shadowGaussian" />
      <feComposite in2="shadowGaussian" operator="atop" in="SourceAlpha" result="shadowComposite" />
      <feColorMatrix type="matrix" values="0 0 0 0 0  0 0 0 0 0  0 0 0 0 0  0 0 0 0.698039215686274 0  " in="shadowComposite" />
    </filter>
    <g id="widget31">
      <path d="M 513 25.0369284683536  C 510.8 21.4073405959099  507.5 19.2295878724437  507.5 15.6  C 507.5 13.7057142857143  508.6 10.5  513 10.5  C 517.4 10.5  518.5 13.7057142857143  518.5 15.6  C 518.5 19.2295878724437  515.2 21.4073405959099  513 25.0369284683536  Z " fill-rule="nonzero" fill="#b6ddee" stroke="none" />
      <path d="M 513 26  C 510.6 22  507 19.6  507 15.6  C 507 13.52  508.2 10  513 10  C 517.8 10  519 13.52  519 15.6  C 519 19.6  515.4 22  513 26  Z M 513 24.0738569367072  C 515 20.8146811918198  518 18.8591757448874  518 15.6  C 518 13.8914285714286  517 11  513 11  C 509 11  508 13.8914285714286  508 15.6  C 508 18.8591757448874  511 20.8146811918198  513 24.0738569367072  Z " fill-rule="nonzero" fill="#485a62" stroke="none" />
    </g>
  </defs>
  <g transform="matrix(1 0 0 1 -503 -6 )">
    <use xlink:href="#widget31" filter="url(#filter30)" />
    <use xlink:href="#widget31" />
  </g>
</svg>