<?xml version="1.0" encoding="utf-8"?>
<svg version="1.1" xmlns:xlink="http://www.w3.org/1999/xlink" width="25px" height="25px" xmlns="http://www.w3.org/2000/svg">
  <g transform="matrix(1 0 0 1 -341 -547 )">
    <path d="M 16.357421875 6.55924479166667  C 16.5635850694444 6.76540798611111  16.6666666666667 7.00954861111111  16.6666666666667 7.29166666666667  L 16.6666666666667 17.7083333333333  C 16.6666666666667 17.9904513888889  16.5635850694444 18.2345920138889  16.357421875 18.4407552083333  C 16.1512586805556 18.6469184027778  15.9071180555556 18.75  15.625 18.75  C 15.4079861111111 18.75  15.2072482638889 18.6848958333333  15.0227864583333 18.5546875  L 7.73111979166667 13.3463541666667  C 7.43815104166667 13.1401909722222  7.29166666666667 12.8580729166667  7.29166666666667 12.5  C 7.29166666666667 12.1419270833333  7.43815104166667 11.8598090277778  7.73111979166667 11.6536458333333  L 15.0227864583333 6.4453125  C 15.2072482638889 6.31510416666667  15.4079861111111 6.25  15.625 6.25  C 15.9071180555556 6.25  16.1512586805556 6.35308159722222  16.357421875 6.55924479166667  Z M 20.6787109375 20.6787109375  C 20.7817925347222 20.5756293402778  20.8333333333333 20.4535590277778  20.8333333333333 20.3125  L 20.8333333333333 4.6875  C 20.8333333333333 4.54644097222222  20.7817925347222 4.42437065972222  20.6787109375 4.3212890625  C 20.5756293402778 4.21820746527778  20.4535590277778 4.16666666666667  20.3125 4.16666666666667  L 4.6875 4.16666666666667  C 4.54644097222222 4.16666666666667  4.42437065972222 4.21820746527778  4.3212890625 4.3212890625  C 4.21820746527778 4.42437065972222  4.16666666666667 4.54644097222222  4.16666666666667 4.6875  L 4.16666666666667 20.3125  C 4.16666666666667 20.4535590277778  4.21820746527778 20.5756293402778  4.3212890625 20.6787109375  C 4.42437065972222 20.7817925347222  4.54644097222222 20.8333333333333  4.6875 20.8333333333333  L 20.3125 20.8333333333333  C 20.4535590277778 20.8333333333333  20.5756293402778 20.7817925347222  20.6787109375 20.6787109375  Z M 23.6246744791667 1.37532552083333  C 24.5415581597222 2.29220920138889  25 3.39626736111111  25 4.6875  L 25 20.3125  C 25 21.6037326388889  24.5415581597222 22.7077907986111  23.6246744791667 23.6246744791667  C 22.7077907986111 24.5415581597222  21.6037326388889 25  20.3125 25  L 4.6875 25  C 3.39626736111111 25  2.29220920138889 24.5415581597222  1.37532552083333 23.6246744791667  C 0.458441840277778 22.7077907986111  0 21.6037326388889  0 20.3125  L 0 4.6875  C 0 3.39626736111111  0.458441840277778 2.29220920138889  1.37532552083333 1.37532552083333  C 2.29220920138889 0.458441840277776  3.39626736111111 0  4.6875 0  L 20.3125 0  C 21.6037326388889 0  22.7077907986111 0.458441840277776  23.6246744791667 1.37532552083333  Z " fill-rule="nonzero" fill="#C2EAFB" stroke="none" transform="matrix(1 0 0 1 341 547 )" />
  </g>
</svg>