<?xml version="1.0" encoding="utf-8"?>
<svg version="1.1" xmlns:xlink="http://www.w3.org/1999/xlink" width="17px" height="13px" xmlns="http://www.w3.org/2000/svg">
  <g transform="matrix(1 0 0 1 -1040 -30 )">
    <path d="M 16.0513392857143 4.99502840909091  C 16.4118303571429 4.75497159090909  16.7280505952381 4.48721590909091  17 4.19176136363636  L 17 11.5227272727273  C 17 11.9289772727273  16.8513764880952 12.2767518939394  16.5541294642857 12.5660511363636  C 16.2568824404762 12.8553503787879  15.8995535714286 13  15.4821428571429 13  L 1.51785714285714 13  C 1.10044642857143 13  0.74311755952381 12.8553503787879  0.445870535714286 12.5660511363636  C 0.148623511904762 12.2767518939394  0 11.9289772727273  0 11.5227272727273  L 0 4.19176136363636  C 0.27827380952381 4.49337121212121  0.59765625 4.76112689393939  0.958147321428571 4.99502840909091  C 3.2475818452381 6.50923295454546  4.81919642857143 7.57102272727273  5.67299107142857 8.18039772727273  C 6.03348214285714 8.43892045454546  6.32598586309524 8.64050662878788  6.55050223214286 8.78515625  C 6.77501860119048 8.92980587121212  7.07384672619048 9.07753314393939  7.44698660714286 9.22833806818182  C 7.82012648809524 9.37914299242424  8.16796875 9.45454545454546  8.49051339285714 9.45454545454546  L 8.5 9.45454545454546  L 8.50948660714286 9.45454545454546  C 8.83203125 9.45454545454546  9.17987351190476 9.37914299242424  9.55301339285714 9.22833806818182  C 9.92615327380953 9.07753314393939  10.2249813988095 8.92980587121212  10.4494977678571 8.78515625  C 10.6740141369048 8.64050662878788  10.9665178571429 8.43892045454546  11.3270089285714 8.18039772727273  C 12.4021577380952 7.42329545454546  13.9769345238095 6.36150568181818  16.0513392857143 4.99502840909091  Z M 16.5493861607143 0.433948863636363  C 16.8497953869048 0.723248106060605  17 1.07102272727273  17 1.47727272727273  C 17 1.96354166666666  16.8450520833333 2.42826704545455  16.53515625 2.87144886363636  C 16.2252604166667 3.31463068181818  15.8394717261905 3.69318181818182  15.3777901785714 4.00710227272727  C 12.9998139880952 5.61363636363636  11.5199032738095 6.61387310606061  10.9380580357143 7.0078125  C 10.8748139880952 7.05089962121212  10.7404203869048 7.14476799242424  10.5348772321429 7.28941761363636  C 10.329334077381 7.43406723484848  10.1585751488095 7.55101799242424  10.0226004464286 7.64026988636364  C 9.88662574404762 7.72952178030303  9.7221912202381 7.82954545454546  9.529296875 7.94034090909091  C 9.33640252976191 8.05113636363637  9.15457589285714 8.13423295454546  8.98381696428571 8.18963068181818  C 8.81305803571429 8.24502840909091  8.65494791666667 8.27272727272727  8.50948660714286 8.27272727272727  L 8.5 8.27272727272727  L 8.49051339285714 8.27272727272727  C 8.34505208333333 8.27272727272727  8.18694196428572 8.24502840909091  8.01618303571428 8.18963068181818  C 7.84542410714286 8.13423295454546  7.6635974702381 8.05113636363637  7.470703125 7.94034090909091  C 7.27780877976191 7.82954545454546  7.11337425595238 7.72952178030303  6.97739955357143 7.64026988636364  C 6.84142485119048 7.55101799242424  6.67066592261905 7.43406723484848  6.46512276785714 7.28941761363636  C 6.25957961309524 7.14476799242424  6.12518601190476 7.05089962121212  6.06194196428571 7.0078125  C 5.48642113095238 6.61387310606061  4.65792410714286 6.05220170454546  3.57645089285714 5.32279829545455  C 2.49497767857143 4.59339488636364  1.84672619047619 4.15482954545454  1.63169642857143 4.00710227272727  C 1.23958333333333 3.74857954545454  0.869605654761905 3.39311079545455  0.521763392857143 2.94069602272727  C 0.173921130952381 2.48828125  0 2.06818181818182  0 1.68039772727273  C 0 1.20028409090909  0.131231398809524 0.800189393939392  0.393694196428572 0.480113636363637  C 0.656156994047619 0.160037878787878  1.03087797619048 0  1.51785714285714 0  L 15.4821428571429 0  C 15.8932291666667 0  16.2489769345238 0.14464962121212  16.5493861607143 0.433948863636363  Z " fill-rule="nonzero" fill="#C2EAFB" stroke="none" transform="matrix(1 0 0 1 1040 30 )" />
  </g>
</svg>