<?xml version="1.0" encoding="utf-8"?>
<svg version="1.1" xmlns:xlink="http://www.w3.org/1999/xlink" width="11px" height="11px" xmlns="http://www.w3.org/2000/svg">
  <g transform="matrix(1 0 0 1 -422 -171 )">
    <path d="M 10.2623697916667 2.7392578125  C 10.7541232638889 3.58192274305555  11 4.50217013888889  11 5.5  C 11 6.49782986111111  10.7541232638889 7.41807725694444  10.2623697916667 8.2607421875  C 9.77061631944445 9.10340711805556  9.10340711805556 9.77061631944444  8.2607421875 10.2623697916667  C 7.41807725694445 10.7541232638889  6.49782986111111 11  5.5 11  C 4.50217013888889 11  3.58192274305556 10.7541232638889  2.7392578125 10.2623697916667  C 1.89659288194444 9.77061631944444  1.22938368055556 9.10340711805556  0.737630208333333 8.2607421875  C 0.245876736111111 7.41807725694444  0 6.49782986111111  0 5.5  C 0 4.50217013888889  0.245876736111111 3.58192274305555  0.737630208333333 2.7392578125  C 1.22938368055556 1.89659288194444  1.89659288194444 1.22938368055555  2.7392578125 0.737630208333333  C 3.58192274305556 0.24587673611111  4.50217013888889 0  5.5 0  C 6.49782986111111 0  7.41807725694445 0.24587673611111  8.2607421875 0.737630208333333  C 9.10340711805556 1.22938368055555  9.77061631944445 1.89659288194444  10.2623697916667 2.7392578125  Z " fill-rule="nonzero" fill="#cc8837" stroke="none" transform="matrix(1 0 0 1 422 171 )" />
  </g>
</svg>