<?xml version="1.0" encoding="utf-8"?>
<svg version="1.1" xmlns:xlink="http://www.w3.org/1999/xlink" width="19px" height="16px" xmlns="http://www.w3.org/2000/svg">
  <g transform="matrix(1 0 0 1 -1088 -29 )">
    <path d="M 6.87379807692308 13.5227272727273  C 7.1630608974359 13.8106060606061  7.30769230769231 14.1515151515152  7.30769230769231 14.5454545454545  C 7.30769230769231 14.9393939393939  7.1630608974359 15.280303030303  6.87379807692308 15.5681818181818  C 6.58453525641026 15.8560606060606  6.24198717948718 16  5.84615384615385 16  C 5.45032051282051 16  5.10777243589744 15.8560606060606  4.81850961538462 15.5681818181818  C 4.52924679487179 15.280303030303  4.38461538461539 14.9393939393939  4.38461538461539 14.5454545454545  C 4.38461538461539 14.1515151515152  4.52924679487179 13.8106060606061  4.81850961538462 13.5227272727273  C 5.10777243589744 13.2348484848485  5.45032051282051 13.0909090909091  5.84615384615385 13.0909090909091  C 6.24198717948718 13.0909090909091  6.58453525641026 13.2348484848485  6.87379807692308 13.5227272727273  Z M 17.1045673076923 13.5227272727273  C 17.3938301282051 13.8106060606061  17.5384615384615 14.1515151515152  17.5384615384615 14.5454545454545  C 17.5384615384615 14.9393939393939  17.3938301282051 15.280303030303  17.1045673076923 15.5681818181818  C 16.8153044871795 15.8560606060606  16.4727564102564 16  16.0769230769231 16  C 15.6810897435897 16  15.3385416666667 15.8560606060606  15.0492788461538 15.5681818181818  C 14.760016025641 15.280303030303  14.6153846153846 14.9393939393939  14.6153846153846 14.5454545454545  C 14.6153846153846 14.1515151515152  14.760016025641 13.8106060606061  15.0492788461538 13.5227272727273  C 15.3385416666667 13.2348484848485  15.6810897435897 13.0909090909091  16.0769230769231 13.0909090909091  C 16.4727564102564 13.0909090909091  16.8153044871795 13.2348484848485  17.1045673076923 13.5227272727273  Z M 18.7830528846154 1.67045454545454  C 18.9276842948718 1.81439393939394  19 1.98484848484848  19 2.18181818181818  L 19 8  C 19 8.18181818181818  18.9371995192308 8.34280303030303  18.8115985576923 8.48295454545455  C 18.6859975961538 8.62310606060606  18.5318509615385 8.70454545454545  18.3491586538462 8.72727272727273  L 6.42848557692308 10.1136363636364  C 6.52744391025641 10.5681818181818  6.57692307692308 10.8333333333333  6.57692307692308 10.9090909090909  C 6.57692307692308 11.030303030303  6.48557692307692 11.2727272727273  6.30288461538462 11.6363636363636  L 16.8076923076923 11.6363636363636  C 17.005608974359 11.6363636363636  17.1768830128205 11.7083333333333  17.3215144230769 11.8522727272727  C 17.4661458333333 11.9962121212121  17.5384615384615 12.1666666666667  17.5384615384615 12.3636363636364  C 17.5384615384615 12.5606060606061  17.4661458333333 12.7310606060606  17.3215144230769 12.875  C 17.1768830128205 13.0189393939394  17.005608974359 13.0909090909091  16.8076923076923 13  L 5.11538461538462 13  C 4.91746794871795 13.0909090909091  4.74619391025641 13.0189393939394  4.6015625 12.875  C 4.45693108974359 12.7310606060606  4.38461538461539 12.5606060606061  4.38461538461539 12.3636363636364  C 4.38461538461539 12.280303030303  4.4150641025641 12.1609848484848  4.47596153846154 12.0056818181818  C 4.53685897435897 11.8503787878788  4.59775641025641 11.7140151515152  4.65865384615385 11.5965909090909  C 4.71955128205128 11.4791666666667  4.80138221153846 11.3276515151515  4.90414663461539 11.1420454545455  C 5.00691105769231 10.9564393939394  5.06590544871795 10.844696969697  5.08112980769231 10.8068181818182  L 3.06009615384615 1.45454545454546  L 0.730769230769231 1.45454545454546  C 0.532852564102564 1.45454545454546  0.361578525641026 1.38257575757576  0.216947115384615 1.23863636363636  C 0.0723157051282051 1.09469696969697  0 0.924242424242424  0 0.727272727272727  C 0 0.530303030303029  0.0723157051282051 0.359848484848483  0.216947115384615 0.215909090909092  C 0.361578525641026 0.0719696969696955  0.532852564102564 0  0.730769230769231 0  L 3.65384615384615 0  C 3.77564102564103 0  3.88411458333333 0.024621212121211  3.97926682692308 0.0738636363636367  C 4.07441907051282 0.123106060606061  4.14863782051282 0.181818181818182  4.20192307692308 0.25  C 4.25520833333333 0.318181818181818  4.3046875 0.410984848484846  4.35036057692308 0.528409090909092  C 4.39603365384615 0.645833333333332  4.42648237179487 0.744318181818182  4.44170673076923 0.823863636363637  C 4.45693108974359 0.903409090909092  4.47786458333333 1.01515151515151  4.50450721153846 1.15909090909091  C 4.53114983974359 1.3030303030303  4.54827724358974 1.40151515151515  4.55588942307692 1.45454545454546  L 18.2692307692308 1.45454545454546  C 18.4671474358974 1.45454545454546  18.638421474359 1.52651515151515  18.7830528846154 1.67045454545454  Z " fill-rule="nonzero" fill="#C2EAFB" stroke="none" transform="matrix(1 0 0 1 1088 29 )" />
  </g>
</svg>