<?xml version="1.0" encoding="utf-8"?>
<svg version="1.1" xmlns:xlink="http://www.w3.org/1999/xlink" width="17px" height="19px" xmlns="http://www.w3.org/2000/svg">
  <g transform="matrix(1 0 0 1 -1150 -26 )">
    <path d="M 3.64285714285714 4.75  C 3.64285714285714 7.3736328125  5.8171875 9.5  8.5 9.5  C 11.1828125 9.5  13.3571428571429 7.3736328125  13.3571428571429 4.75  C 13.3571428571429 2.1263671875  11.1828125 0  8.5 0  C 5.8171875 0  3.64285714285714 2.1263671875  3.64285714285714 4.75  Z M 17 15.675  C 17 12.921484375  14.715625 10.6875  11.9 10.6875  L 11.2662946428571 10.6875  C 10.4238839285714 11.066015625  9.48660714285714 11.28125  8.5 11.28125  C 7.51339285714286 11.28125  6.57991071428572 11.066015625  5.73370535714286 10.6875  L 5.1 10.6875  C 2.284375 10.6875  0 12.921484375  0 15.675  L 0 17.21875  C 0 18.2021484375  0.815848214285714 19  1.82142857142857 19  L 15.1785714285714 19  C 16.1841517857143 19  17 18.2021484375  17 17.21875  L 17 15.675  Z " fill-rule="nonzero" fill="#f7f7d9" stroke="none" transform="matrix(1 0 0 1 1150 26 )" />
  </g>
</svg>