<?xml version="1.0" encoding="utf-8"?>
<svg version="1.1" xmlns:xlink="http://www.w3.org/1999/xlink" width="455px" height="341px" xmlns="http://www.w3.org/2000/svg">
  <defs>
    <linearGradient gradientUnits="userSpaceOnUse" x1="600.5" y1="264" x2="600.5" y2="605" id="LinearGradient4">
      <stop id="Stop5" stop-color="#ffffff" stop-opacity="0.101960784313725" offset="0" />
      <stop id="Stop6" stop-color="#ffffff" stop-opacity="0.184313725490196" offset="1" />
    </linearGradient>
  </defs>
  <g transform="matrix(1 0 0 1 -373 -264 )">
    <path d="M 373.5 279  A 14.5 14.5 0 0 1 388 264.5 L 813 264.5  A 14.5 14.5 0 0 1 827.5 279 L 827.5 590  A 14.5 14.5 0 0 1 813 604.5 L 388 604.5  A 14.5 14.5 0 0 1 373.5 590 L 373.5 279  Z " fill-rule="nonzero" fill="url(#LinearGradient4)" stroke="none" />
    <path d="M 373.5 279  A 14.5 14.5 0 0 1 388 264.5 L 813 264.5  A 14.5 14.5 0 0 1 827.5 279 L 827.5 590  A 14.5 14.5 0 0 1 813 604.5 L 388 604.5  A 14.5 14.5 0 0 1 373.5 590 L 373.5 279  Z " stroke-width="1" stroke="#b6ddee" fill="none" />
  </g>
</svg>