<?xml version="1.0" encoding="UTF-8" standalone="no"?>
<svg
   xmlns:dc="http://purl.org/dc/elements/1.1/"
   xmlns:cc="http://creativecommons.org/ns#"
   xmlns:rdf="http://www.w3.org/1999/02/22-rdf-syntax-ns#"
   xmlns:svg="http://www.w3.org/2000/svg"
   xmlns="http://www.w3.org/2000/svg"
   xmlns:sodipodi="http://sodipodi.sourceforge.net/DTD/sodipodi-0.dtd"
   xmlns:inkscape="http://www.inkscape.org/namespaces/inkscape"
   viewBox="0 0 407 116"
   version="1.1"
   id="svg98"
   sodipodi:docname="download.svg"
   inkscape:version="1.0.1 (3bc2e813f5, 2020-09-07)">
  <metadata
     id="metadata102">
    <rdf:RDF>
      <cc:Work
         rdf:about="">
        <dc:format>image/svg+xml</dc:format>
        <dc:type
           rdf:resource="http://purl.org/dc/dcmitype/StillImage" />
      </cc:Work>
    </rdf:RDF>
  </metadata>
  <sodipodi:namedview
     pagecolor="#ffffff"
     bordercolor="#666666"
     borderopacity="1"
     objecttolerance="10"
     gridtolerance="10"
     guidetolerance="10"
     inkscape:pageopacity="0"
     inkscape:pageshadow="2"
     inkscape:window-width="1440"
     inkscape:window-height="838"
     id="namedview100"
     showgrid="false"
     inkscape:zoom="2.7321867"
     inkscape:cx="203.64705"
     inkscape:cy="58.028084"
     inkscape:window-x="-6"
     inkscape:window-y="-6"
     inkscape:window-maximized="1"
     inkscape:current-layer="svg98" />
  <defs
     id="defs62">
    <style
       id="style57">
      .cls-1 {
        clip-path: url(#clip-SW_TM-logo-on-dark);
      }

      .cls-2 {
        fill: #fff;
      }

      .cls-3 {
        fill: #85ea2d;
      }

      .cls-4 {
        fill: #173647;
      }
    </style>
    <clipPath
       id="clip-SW_TM-logo-on-dark">
      <rect
         width="407"
         height="116"
         id="rect59" />
    </clipPath>
  </defs>
  <g
     id="SW_TM-logo-on-dark"
     class="cls-1"
     clip-path="url(#clip-SW_TM-logo-on-dark)"
     transform="translate(0.73201441,1.0980216)">
    <g
       id="SW_In-Product"
       transform="translate(-0.301)">
      <path
         id="Path_2936"
         data-name="Path 2936"
         class="cls-2"
         d="m 359.15,70.674 h -0.7 v -3.682 h -1.26 v -0.6 h 3.219 v 0.6 h -1.259 z" />
      <path
         id="Path_2937"
         data-name="Path 2937"
         class="cls-2"
         d="M 363.217,70.674 361.975,67.1 h -0.023 q 0.05,0.8 0.05,1.494 v 2.083 h -0.636 v -4.286 h 0.987 l 1.19,3.407 h 0.017 l 1.225,-3.407 h 0.99 v 4.283 H 365.1 v -2.118 c 0,-0.213 0.006,-0.49 0.016,-0.832 0.01,-0.342 0.02,-0.549 0.028,-0.621 h -0.023 l -1.286,3.571 z" />
      <path
         id="Path_2938"
         data-name="Path 2938"
         class="cls-3"
         d="M 50.328,97.669 A 47.642,47.642 0 1 1 97.971,50.027 47.642,47.642 0 0 1 50.328,97.669 Z" />
      <path
         id="Path_2939"
         data-name="Path 2939"
         class="cls-3"
         d="M 50.328,4.769 A 45.258,45.258 0 1 1 5.07,50.027 45.258,45.258 0 0 1 50.328,4.769 M 50.328,0 A 50.027,50.027 0 1 0 100.355,50.027 50.027,50.027 0 0 0 50.328,0 Z" />
      <path
         id="Path_2940"
         data-name="Path 2940"
         class="cls-4"
         d="m 31.8,33.854 c -0.154,1.712 0.058,3.482 -0.057,5.213 a 42.665,42.665 0 0 1 -0.693,5.156 9.53,9.53 0 0 1 -4.1,5.829 c 4.079,2.654 4.54,6.771 4.81,10.946 0.135,2.25 0.077,4.52 0.308,6.752 0.173,1.731 0.846,2.174 2.636,2.231 0.73,0.02 1.48,0 2.327,0 v 5.349 c -5.29,0.9 -9.657,-0.6 -10.734,-5.079 a 30.76,30.76 0 0 1 -0.654,-5 c -0.117,-1.789 0.076,-3.578 -0.058,-5.367 -0.386,-4.906 -1.02,-6.56 -5.713,-6.791 v -6.1 A 9.191,9.191 0 0 1 20.9,46.82 c 2.577,-0.135 3.674,-0.924 4.231,-3.463 a 29.3,29.3 0 0 0 0.481,-4.329 82.1,82.1 0 0 1 0.6,-8.406 c 0.673,-3.982 3.136,-5.906 7.234,-6.137 1.154,-0.057 2.327,0 3.655,0 v 5.464 c -0.558,0.038 -1.039,0.115 -1.539,0.115 -3.336,-0.115 -3.51,1.02 -3.762,3.79 z m 6.406,12.658 h -0.077 a 3.515,3.515 0 1 0 -0.346,7.021 h 0.231 a 3.461,3.461 0 0 0 3.655,-3.251 V 50.09 a 3.523,3.523 0 0 0 -3.461,-3.578 z m 12.062,0 a 3.373,3.373 0 0 0 -3.482,3.251 1.79,1.79 0 0 0 0.02,0.327 3.3,3.3 0 0 0 3.578,3.443 3.263,3.263 0 0 0 3.443,-3.558 3.308,3.308 0 0 0 -3.557,-3.463 z m 12.351,0 a 3.592,3.592 0 0 0 -3.655,3.482 3.529,3.529 0 0 0 3.536,3.539 h 0.039 c 1.769,0.309 3.559,-1.4 3.674,-3.462 a 3.571,3.571 0 0 0 -3.6,-3.559 z M 79.567,46.8 c -2.232,-0.1 -3.348,-0.846 -3.9,-2.962 a 21.447,21.447 0 0 1 -0.635,-4.136 c -0.154,-2.578 -0.135,-5.175 -0.308,-7.753 -0.4,-6.117 -4.828,-8.252 -11.254,-7.195 v 5.31 c 1.019,0 1.808,0 2.6,0.019 1.366,0.019 2.4,0.539 2.539,2.059 0.135,1.385 0.135,2.789 0.27,4.193 0.269,2.79 0.422,5.618 0.9,8.369 a 8.715,8.715 0 0 0 3.921,5.348 c -3.4,2.289 -4.406,5.559 -4.578,9.234 -0.1,2.52 -0.154,5.059 -0.289,7.6 -0.115,2.308 -0.923,3.058 -3.251,3.116 -0.654,0.019 -1.289,0.077 -2.019,0.115 v 5.445 c 1.365,0 2.616,0.077 3.866,0 3.886,-0.231 6.233,-2.117 7,-5.887 A 49.079,49.079 0 0 0 75,63.4 c 0.135,-1.923 0.116,-3.866 0.308,-5.771 0.289,-2.982 1.655,-4.213 4.636,-4.4 a 4.037,4.037 0 0 0 0.828,-0.192 v -6.1 c -0.5,-0.058 -0.843,-0.115 -1.208,-0.135 z" />
      <path
         id="Path_2941"
         data-name="Path 2941"
         class="cls-2"
         d="m 152.273,58.122 a 11.228,11.228 0 0 1 -4.384,9.424 q -4.383,3.382 -11.9,3.382 -8.14,0 -12.524,-2.1 V 63.7 a 32.9,32.9 0 0 0 6.137,1.879 32.3,32.3 0 0 0 6.575,0.689 q 5.322,0 8.015,-2.02 a 6.626,6.626 0 0 0 2.692,-5.62 7.222,7.222 0 0 0 -0.954,-3.9 8.885,8.885 0 0 0 -3.194,-2.8 44.634,44.634 0 0 0 -6.81,-2.911 Q 129.539,46.731 126.8,43.6 A 11.955,11.955 0 0 1 124.06,35.428 10.164,10.164 0 0 1 128.039,27 q 3.977,-3.131 10.52,-3.131 a 31,31 0 0 1 12.555,2.5 L 149.455,31 a 28.382,28.382 0 0 0 -11.021,-2.38 10.668,10.668 0 0 0 -6.606,1.816 5.984,5.984 0 0 0 -2.38,5.041 7.722,7.722 0 0 0 0.877,3.9 8.242,8.242 0 0 0 2.959,2.786 36.7,36.7 0 0 0 6.371,2.8 q 7.2,2.566 9.91,5.51 a 10.84,10.84 0 0 1 2.708,7.649 z" />
      <path
         id="Path_2942"
         data-name="Path 2942"
         class="cls-2"
         d="M 185.288,70.3 179,50.17 q -0.594,-1.848 -2.222,-8.391 h -0.251 q -1.252,5.479 -2.192,8.453 L 167.849,70.3 h -6.011 l -9.361,-34.315 h 5.447 q 3.318,12.931 5.057,19.693 a 80.112,80.112 0 0 1 1.988,9.111 h 0.25 q 0.345,-1.785 1.112,-4.618 0.767,-2.833 1.33,-4.493 l 6.294,-19.693 h 5.635 l 6.137,19.693 a 66.369,66.369 0 0 1 2.379,9.048 h 0.251 a 33.163,33.163 0 0 1 0.673,-3.475 q 0.548,-2.347 6.528,-25.266 h 5.385 L 191.456,70.3 Z" />
      <path
         id="Path_2943"
         data-name="Path 2943"
         class="cls-2"
         d="m 225.115,70.3 -1.033,-4.885 h -0.25 a 14.446,14.446 0 0 1 -5.119,4.368 15.608,15.608 0 0 1 -6.372,1.143 q -5.1,0 -8,-2.63 -2.9,-2.63 -2.9,-7.483 0,-10.4 16.626,-10.9 l 5.823,-0.188 V 47.6 q 0,-4.038 -1.738,-5.964 -1.738,-1.926 -5.552,-1.923 a 22.633,22.633 0 0 0 -9.706,2.63 l -1.6,-3.977 a 24.437,24.437 0 0 1 5.557,-2.16 24.056,24.056 0 0 1 6.058,-0.783 q 6.136,0 9.1,2.724 2.964,2.724 2.959,8.735 V 70.3 Z m -11.741,-3.663 a 10.549,10.549 0 0 0 7.626,-2.66 9.845,9.845 0 0 0 2.771,-7.451 v -3.1 l -5.2,0.219 q -6.2,0.219 -8.939,1.926 a 5.8,5.8 0 0 0 -2.74,5.306 5.354,5.354 0 0 0 1.707,4.29 7.081,7.081 0 0 0 4.775,1.472 z" />
      <path
         id="Path_2944"
         data-name="Path 2944"
         class="cls-2"
         d="m 264.6,35.987 v 3.287 l -6.356,0.752 a 11.16,11.16 0 0 1 2.255,6.856 10.148,10.148 0 0 1 -3.444,8.047 q -3.444,3 -9.456,3 a 15.734,15.734 0 0 1 -2.88,-0.25 Q 241.4,59.438 241.4,62.1 a 2.242,2.242 0 0 0 1.159,2.082 8.456,8.456 0 0 0 3.976,0.673 h 6.074 q 5.573,0 8.563,2.348 a 8.158,8.158 0 0 1 2.99,6.825 9.743,9.743 0 0 1 -4.571,8.688 q -4.572,2.989 -13.338,2.99 -6.732,0 -10.379,-2.5 a 8.087,8.087 0 0 1 -3.647,-7.076 7.946,7.946 0 0 1 2,-5.417 10.211,10.211 0 0 1 5.636,-3.1 5.429,5.429 0 0 1 -2.207,-1.847 4.89,4.89 0 0 1 -0.893,-2.912 5.53,5.53 0 0 1 1,-3.288 10.529,10.529 0 0 1 3.162,-2.723 9.275,9.275 0 0 1 -4.336,-3.726 10.945,10.945 0 0 1 -1.675,-6.012 q 0,-5.634 3.382,-8.688 3.382,-3.054 9.58,-3.052 a 17.439,17.439 0 0 1 4.853,0.626 z m -27.367,40.075 a 4.66,4.66 0 0 0 2.348,4.227 12.973,12.973 0 0 0 6.732,1.44 q 6.543,0 9.69,-1.956 a 5.992,5.992 0 0 0 3.147,-5.307 q 0,-2.787 -1.723,-3.867 -1.723,-1.08 -6.481,-1.08 h -6.23 a 8.205,8.205 0 0 0 -5.51,1.69 6.043,6.043 0 0 0 -1.973,4.853 z m 2.818,-29.086 a 6.984,6.984 0 0 0 2.035,5.448 8.123,8.123 0 0 0 5.667,1.847 q 7.608,0 7.608,-7.389 0,-7.733 -7.7,-7.733 a 7.628,7.628 0 0 0 -5.635,1.972 q -1.976,1.973 -1.975,5.855 z" />
      <path
         id="Path_2945"
         data-name="Path 2945"
         class="cls-2"
         d="m 299.136,35.987 v 3.287 l -6.356,0.752 a 11.168,11.168 0 0 1 2.254,6.856 10.145,10.145 0 0 1 -3.444,8.047 q -3.444,3 -9.455,3 a 15.734,15.734 0 0 1 -2.88,-0.25 q -3.32,1.754 -3.319,4.415 a 2.243,2.243 0 0 0 1.158,2.082 8.459,8.459 0 0 0 3.976,0.673 h 6.074 q 5.574,0 8.563,2.348 a 8.158,8.158 0 0 1 2.99,6.825 9.743,9.743 0 0 1 -4.571,8.688 q -4.57,2.989 -13.337,2.99 -6.732,0 -10.379,-2.5 a 8.088,8.088 0 0 1 -3.648,-7.076 7.947,7.947 0 0 1 2,-5.417 10.207,10.207 0 0 1 5.636,-3.1 5.432,5.432 0 0 1 -2.208,-1.847 4.889,4.889 0 0 1 -0.892,-2.912 5.53,5.53 0 0 1 1,-3.288 10.529,10.529 0 0 1 3.162,-2.723 9.271,9.271 0 0 1 -4.336,-3.726 10.945,10.945 0 0 1 -1.675,-6.012 q 0,-5.634 3.381,-8.688 3.381,-3.054 9.581,-3.052 a 17.444,17.444 0 0 1 4.853,0.626 z m -27.364,40.075 a 4.658,4.658 0 0 0 2.348,4.227 12.969,12.969 0 0 0 6.731,1.44 q 6.544,0 9.691,-1.956 a 5.993,5.993 0 0 0 3.146,-5.307 q 0,-2.787 -1.722,-3.867 -1.722,-1.08 -6.481,-1.08 h -6.23 a 8.208,8.208 0 0 0 -5.511,1.69 6.042,6.042 0 0 0 -1.972,4.853 z m 2.818,-29.086 a 6.984,6.984 0 0 0 2.035,5.448 8.121,8.121 0 0 0 5.667,1.847 q 7.607,0 7.608,-7.389 0,-7.733 -7.7,-7.733 a 7.629,7.629 0 0 0 -5.635,1.972 q -1.975,1.973 -1.975,5.855 z" />
      <path
         id="Path_2946"
         data-name="Path 2946"
         class="cls-2"
         d="m 316.778,70.928 q -7.608,0 -12.007,-4.634 -4.399,-4.634 -4.4,-12.868 0,-8.3 4.086,-13.181 a 13.573,13.573 0 0 1 10.974,-4.884 12.938,12.938 0 0 1 10.207,4.239 q 3.762,4.247 3.762,11.2 v 3.287 h -23.643 q 0.156,6.044 3.053,9.174 2.897,3.13 8.156,3.131 a 27.633,27.633 0 0 0 10.958,-2.317 v 4.634 a 27.5,27.5 0 0 1 -5.213,1.706 29.251,29.251 0 0 1 -5.933,0.513 z m -1.409,-31.215 a 8.489,8.489 0 0 0 -6.591,2.692 12.416,12.416 0 0 0 -2.9,7.452 h 17.94 q 0,-4.916 -2.191,-7.53 a 7.714,7.714 0 0 0 -6.258,-2.614 z" />
      <path
         id="Path_2947"
         data-name="Path 2947"
         class="cls-2"
         d="m 350.9,35.361 a 20.38,20.38 0 0 1 4.1,0.375 l -0.721,4.822 a 17.712,17.712 0 0 0 -3.757,-0.47 9.142,9.142 0 0 0 -7.122,3.382 12.327,12.327 0 0 0 -2.959,8.422 V 70.3 h -5.2 V 35.987 h 4.29 l 0.6,6.356 h 0.25 a 15.072,15.072 0 0 1 4.6,-5.166 10.356,10.356 0 0 1 5.919,-1.816 z" />
      <path
         id="Path_2957"
         transform="translate(-0.43101441,-1.0980216)"
         d="m 130.32227,100.03516 c 0.029,0.0822 0.0658,0.15466 0.0918,0.24023 -0.002,-0.0866 -0.004,-0.13615 -0.006,-0.20898 a 8.341,8.341 0 0 0 -0.0859,-0.0312 z" />
    </g>
  </g>
</svg>
