<?xml version="1.0" encoding="utf-8"?>
<svg version="1.1" xmlns:xlink="http://www.w3.org/1999/xlink" width="25px" height="25px" xmlns="http://www.w3.org/2000/svg">
  <g transform="matrix(1 0 0 1 -457 -511 )">
    <path d="M 17.2688802083333 11.6536458333333  C 17.5618489583333 11.8598090277778  17.7083333333333 12.1419270833333  17.7083333333333 12.5  C 17.7083333333333 12.8580729166667  17.5618489583333 13.1401909722222  17.2688802083333 13.3463541666667  L 9.97721354166667 18.5546875  C 9.64084201388889 18.8042534722222  9.28276909722222 18.8313802083333  8.90299479166667 18.6360677083333  C 8.52322048611111 18.4516059027778  8.33333333333333 18.1423611111111  8.33333333333333 17.7083333333333  L 8.33333333333333 7.29166666666667  C 8.33333333333333 6.85763888888889  8.52322048611111 6.54839409722222  8.90299479166667 6.36393229166667  C 9.28276909722222 6.16861979166667  9.64084201388889 6.19574652777778  9.97721354166667 6.4453125  L 17.2688802083333 11.6536458333333  Z M 20.6868489583333 20.6868489583333  C 20.7845052083333 20.5891927083333  20.8333333333333 20.4644097222222  20.8333333333333 20.3125  L 20.8333333333333 4.6875  C 20.8333333333333 4.53559027777778  20.7845052083333 4.41080729166667  20.6868489583333 4.31315104166667  C 20.5891927083333 4.21549479166667  20.4644097222222 4.16666666666667  20.3125 4.16666666666667  L 4.6875 4.16666666666667  C 4.53559027777778 4.16666666666667  4.41080729166667 4.21549479166667  4.31315104166667 4.31315104166667  C 4.21549479166667 4.41080729166667  4.16666666666667 4.53559027777778  4.16666666666667 4.6875  L 4.16666666666667 20.3125  C 4.16666666666667 20.4644097222222  4.21549479166667 20.5891927083333  4.31315104166667 20.6868489583333  C 4.41080729166667 20.7845052083333  4.53559027777778 20.8333333333333  4.6875 20.8333333333333  L 20.3125 20.8333333333333  C 20.4644097222222 20.8333333333333  20.5891927083333 20.7845052083333  20.6868489583333 20.6868489583333  Z M 23.6246744791667 1.37532552083333  C 24.5415581597222 2.29220920138889  25 3.39626736111111  25 4.6875  L 25 20.3125  C 25 21.6037326388889  24.5415581597222 22.7077907986111  23.6246744791667 23.6246744791667  C 22.7077907986111 24.5415581597222  21.6037326388889 25  20.3125 25  L 4.6875 25  C 3.39626736111111 25  2.29220920138889 24.5415581597222  1.37532552083333 23.6246744791667  C 0.458441840277778 22.7077907986111  0 21.6037326388889  0 20.3125  L 0 4.6875  C 0 3.39626736111111  0.458441840277778 2.29220920138889  1.37532552083333 1.37532552083333  C 2.29220920138889 0.458441840277776  3.39626736111111 0  4.6875 0  L 20.3125 0  C 21.6037326388889 0  22.7077907986111 0.458441840277776  23.6246744791667 1.37532552083333  Z " fill-rule="nonzero" fill="#001f55" stroke="none" transform="matrix(1 0 0 1 457 511 )" />
  </g>
</svg>