<?xml version="1.0" encoding="utf-8"?>
<svg version="1.1" xmlns:xlink="http://www.w3.org/1999/xlink" width="21px" height="17px" xmlns="http://www.w3.org/2000/svg">
  <g transform="matrix(1 0 0 1 -32 -98 )">
    <path d="M 17.9814126394052 9.71239282930631  C 17.9900867410161 9.73005975578072  17.9944237918216 9.75656014549234  17.9944237918216 9.79189399844115  L 17.9944237918216 16.1519875292284  C 17.9944237918216 16.3816575733957  17.912019826518 16.5804104962328  17.7472118959108 16.7482462977397  C 17.5824039653036 16.9160820992466  17.3872366790582 17  17.1617100371747 17  L 12.1654275092937 17  L 12.1654275092937 11.9119251753702  L 8.83457249070632 11.9119251753702  L 8.83457249070632 17  L 3.83828996282528 17  C 3.61276332094176 17  3.41759603469641 16.9160820992466  3.25278810408922 16.7482462977397  C 3.08798017348203 16.5804104962328  3.00557620817844 16.3816575733957  3.00557620817844 16.1519875292284  L 3.00557620817844 9.79189399844115  C 3.00557620817844 9.78306053520395  3.00774473358116 9.76981034034814  3.01208178438662 9.75214341387373  C 3.01641883519207 9.73447648739932  3.0185873605948 9.72122629254352  3.0185873605948 9.71239282930631  L 10.5 3.43180046765394  L 17.9814126394052 9.71239282930631  Z M 20.9869888475836 8.56625097427903  C 20.9956629491946 8.68550272798129  20.9653035935564 8.78929592101845  20.8959107806691 8.87763055339049  L 20.089219330855 9.85814497272019  C 20.0198265179678 9.93764614185503  19.9287484510533 9.98623018965965  19.8159851301115 10.0038971161341  L 19.7769516728625 10.0038971161341  C 19.6641883519207 10.0038971161341  19.5731102850062 9.97297999480385  19.503717472119 9.91114575214341  L 10.5 2.26578332034295  L 1.49628252788104 9.91114575214341  C 1.39219330855019 9.98181345804105  1.28810408921933 10.0127305793713  1.18401486988848 10.0038971161341  C 1.07125154894672 9.98623018965965  0.980173482032218 9.93764614185503  0.910780669144981 9.85814497272019  L 0.104089219330855 8.87763055339049  C 0.0346964064436184 8.78929592101845  0.00433705080545232 8.68550272798129  0.0130111524163569 8.56625097427903  C 0.0216852540272615 8.44699922057677  0.0693928128872367 8.35203949077682  0.156133828996283 8.28137178487919  L 9.51115241635688 0.344505066250975  C 9.78872366790582 0.114835022083656  10.1183395291202 0  10.5 0  C 10.8816604708798 0  11.2112763320942 0.114835022083656  11.4888475836431 0.344505066250975  L 14.6635687732342 3.04754481683554  L 14.6635687732342 0.463756819953234  C 14.6635687732342 0.34008833463237  14.7026022304833 0.23850350740452  14.7806691449814 0.159002338269681  C 14.8587360594796 0.0795011691348406  14.958488228005 0.0397505845674203  15.0799256505576 0.0397505845674203  L 17.5780669144981 0.0397505845674203  C 17.6995043370508 0.0397505845674203  17.7992565055762 0.0795011691348406  17.8773234200743 0.159002338269681  C 17.9553903345725 0.23850350740452  17.9944237918216 0.34008833463237  17.9944237918216 0.463756819953234  L 17.9944237918216 5.86983632112237  L 20.8438661710037 8.28137178487919  C 20.9306071871128 8.35203949077682  20.9783147459727 8.44699922057677  20.9869888475836 8.56625097427903  Z " fill-rule="nonzero" fill="#117563" stroke="none" transform="matrix(1 0 0 1 32 98 )" />
  </g>
</svg>