<?xml version="1.0" encoding="utf-8"?>
<svg version="1.1" xmlns:xlink="http://www.w3.org/1999/xlink" width="32px" height="50px" xmlns="http://www.w3.org/2000/svg">
  <g transform="matrix(1 0 0 1 -802 -73 )">
    <path d="M 32 25  C 32 25.5376344086022  31.8043758043758 26.0028949545079  31.4131274131274 26.3957816377171  L 8.4942084942085 49.4106699751861  C 8.1029601029601 49.8035566583954  7.63963963963964 50  7.1042471042471 50  C 6.56885456885457 50  6.10553410553411 49.8035566583954  5.71428571428571 49.4106699751861  L 0.586872586872587 44.2617866004963  C 0.195624195624196 43.868899917287  0 43.4036393713813  0 42.8660049627792  C 0 42.328370554177  0.195624195624196 41.8631100082713  0.586872586872587 41.470223325062  L 16.988416988417 25  L 0.586872586872587 8.52977667493797  C 0.195624195624196 8.1368899917287  0 7.67162944582299  0 7.13399503722084  C 0 6.59636062861869  0.195624195624196 6.13110008271298  0.586872586872587 5.73821339950372  L 5.71428571428571 0.589330024813894  C 6.10553410553411 0.19644334160463  6.56885456885457 0  7.1042471042471 0  C 7.63963963963964 0  8.1029601029601 0.19644334160463  8.4942084942085 0.589330024813894  L 31.4131274131274 23.6042183622829  C 31.8043758043758 23.9971050454921  32 24.4623655913978  32 25  Z " fill-rule="nonzero" fill="#117563" stroke="none" transform="matrix(1 0 0 1 802 73 )" />
  </g>
</svg>