<?xml version="1.0" encoding="utf-8"?>
<svg version="1.1" xmlns:xlink="http://www.w3.org/1999/xlink" width="34px" height="34px" xmlns="http://www.w3.org/2000/svg">
  <g transform="matrix(1 0 0 1 -379 -23 )">
    <path d="M 392.546533463076 35.2467110956259  L 396 24.6180339887499  L 399.453466536924 35.2467110956259  L 410.62911900843 35.2467110956259  L 401.587826235753 41.8155948031232  L 405.041292772677 52.4442719099992  L 396 45.8753882025019  L 386.958707227323 52.4442719099992  L 390.412173764247 41.8155948031232  L 381.37088099157 35.2467110956259  L 392.546533463076 35.2467110956259  Z " fill-rule="nonzero" fill="#bf051b" stroke="none" />
    <path d="M 392.183262199074 34.7467110956259  L 396 23  L 399.816737800926 34.7467110956259  L 412.167960777018 34.7467110956259  L 402.175611488046 42.0065778087482  L 405.992349288972 53.7532889043741  L 396 46.4934221912518  L 386.007650711028 53.7532889043741  L 389.824388511954 42.0065778087482  L 379.832039222982 34.7467110956259  L 392.183262199074 34.7467110956259  Z M 396 26.2360679774998  L 392.909804727079 35.7467110956259  L 382.909722760158 35.7467110956259  L 390.999959016539 41.6246117974981  L 387.909763743618 51.1352549156242  L 396 45.257354213752  L 404.090236256382 51.1352549156242  L 401.000040983461 41.6246117974981  L 409.090277239842 35.7467110956259  L 399.090195272921 35.7467110956259  L 396 26.2360679774998  Z " fill-rule="nonzero" fill="#ffffff" stroke="none" />
  </g>
</svg>